     Track |   Start  |  Length  | Start sector | End sector 
    ---------------------------------------------------------
        1  |  0:00.00 |  0:13.33 |         0    |     1007   
        2  |  0:13.33 |  3:07.70 |      1008    |    15102   
        3  |  3:21.28 |  3:33.70 |     15103    |    31147   
        4  |  6:55.23 |  2:55.04 |     31148    |    44276   
        5  |  9:50.27 |  2:44.16 |     44277    |    56592   
        6  | 12:34.43 |  3:24.13 |     56593    |    71905   
        7  | 15:58.56 |  2:42.08 |     71906    |    84063   
        8  | 18:40.64 |  3:17.38 |     84064    |    98876   
        9  | 21:58.27 |  3:16.10 |     98877    |   113586   
       10  | 25:14.37 |  2:55.38 |    113587    |   126749   
       11  | 28:10.00 |  2:58.65 |    126750    |   140164   
       12  | 31:08.65 |  2:24.55 |    140165    |   151019   
       13  | 33:33.45 |  3:07.39 |    151020    |   165083   
       14  | 39:13.09 | 24:32.48 |    176484    |   286931   
